# xmcd
#
# Track frame offsets: 
#        150
#        40687
#        46353
#        73240
#        95981
#        99853
#        168166
#        171994
#        209575
#        244031
#        247319
#
# Disc length: 3834 seconds
#
# Revision: 10
# Processed by: cddbd v1.5.2PL0 Copyright (c) Steve Scherf et al.
# Submitted via: ExactAudioCopy v1.0b3
#
DISCID=9f0ef80b
DTITLE=Albert King with Stevie Ray Vaughan - In Session
DYEAR=1999
DGENRE=Blues
TTITLE0=Call It Stormy Monday
TTITLE1=Old Times
TTITLE2=Pride And Joy
TTITLE3=Ask Me No Questions
TTITLE4=Pep Talk
TTITLE5=Blues At Sunrise
TTITLE6=Turn It Over
TTITLE7=Overall Junction
TTITLE8=Match Box Blues
TTITLE9=Who Is Stevie?
TTITLE10=Don't Lie To Me
EXTD=YEAR: 1999
EXTT0=
EXTT1=
EXTT2=
EXTT3=
EXTT4=
EXTT5=
EXTT6=
EXTT7=
EXTT8=
EXTT9=
EXTT10=
PLAYORDER=
